<svg width="200" height="200" viewBox="0 0 200 200" fill="none" xmlns="http://www.w3.org/2000/svg">
<path d="M99.9879 9.9678C128.823 9.9678 158.201 16.1784 185.807 29.5305C195.548 52.8722 200 76.9012 200 100.352C200 123.735 195.606 147.493 185.858 171.054C158.145 184.471 128.866 190.622 99.9955 190.622C71.1402 190.622 41.8745 184.471 14.1307 171.054C4.38221 147.496 0 123.737 0 100.352C0 76.9017 4.4388 52.8717 14.1867 29.5305C41.798 16.1778 71.1836 9.96729 99.9955 9.96729" fill="#367C2B"/>
<path d="M20.1755 165.433C12.1167 145.233 7.70312 123.278 7.70312 100.352C7.70312 77.3737 12.1231 55.3933 20.2201 35.1444C44.2058 23.9051 71.5091 17.6023 99.9871 17.6023C128.475 17.6023 155.796 23.9054 179.764 35.1444C187.858 55.3921 192.284 77.3732 192.284 100.352C192.284 123.277 187.884 145.233 179.815 165.433C155.833 176.688 128.501 182.995 99.9871 182.995C71.4887 182.995 44.1591 176.688 20.1755 165.433Z" fill="#FFDE00"/>
<path d="M175.245 161.214C170.204 152.916 163.432 146.214 163.359 146.151C163.276 146.109 161.951 145.698 161.951 145.698C147.579 141.282 138.16 137.961 133.995 135.804C128.266 132.828 122.246 125.604 121.583 124.791C114.866 124.284 109.309 124.393 103.962 125.04L100.555 125.482C94.0609 126.321 87.3563 127.207 80.7856 126.152C76.4105 125.435 72.1626 124.042 67.6598 122.576C60.7227 120.304 53.6163 117.972 45.4969 117.984H45.1718L45.3121 118.271C47.1572 121.859 54.4448 132.748 63.5713 135.74C65.5852 136.225 67.0414 136.76 67.6726 137.254C67.6726 137.276 71.1651 144.382 72.118 146.304C66.4395 143.726 48.8749 134.794 34.7047 117.551V117.525C34.7047 117.296 34.3384 113.94 34.2619 113.207C42.7001 110.059 61.7024 108.233 63.8438 108.029L63.9998 108.016L64.0669 107.844C65.2013 97.848 67.5691 89.8493 72.0048 81.0895C72.1323 80.8249 72.2088 80.5827 72.2088 80.3724C72.2065 80.2215 72.1694 80.0732 72.1004 79.939C71.8518 79.4674 71.2431 79.3751 71.2176 79.3751C71.2176 79.3751 58.9492 77.2337 58.2864 77.119C57.8229 75.694 57.3576 74.2697 56.8906 72.8459C66.2113 69.3789 77.7024 66.1349 84.2801 64.7073C85.3923 62.9322 85.7046 61.9668 85.7046 60.8069C85.7046 59.8221 85.2297 58.9842 84.2801 58.3405C79.618 55.1794 64.9341 57.0816 50.079 62.7793C50.0471 62.7186 50.0471 62.7059 50.0025 62.6421C53.0871 60.335 58.5999 56.9063 62.6882 55.007L62.8475 54.9178L62.7999 54.7649C61.6909 51.0077 54.4352 48.1337 53.6194 47.8405C53.6352 47.713 53.6479 47.6271 53.6607 47.5282C61.0378 47.0247 65.9324 50.4757 67.4268 52.9358L67.5033 53.0568L67.6499 53.0092C68.5964 52.7033 71.9296 51.6453 75.5368 51.2183L75.7471 51.2086L75.6898 50.9886C74.5044 44.6695 68.4723 40.4504 66.4168 39.1791C66.4741 39.0771 66.4933 39.0389 66.5506 38.9657C73.6728 39.5168 80.253 45.6512 81.7346 50.8357L81.7762 50.9759L81.9228 50.9886C83.8347 51.0554 86.1546 51.269 87.7066 51.5303L87.8659 51.5558L87.9233 51.422C88.5032 50.0612 88.7867 48.6081 88.7867 47.1137C88.7867 42.4455 86.1482 37.4392 82.9043 34.275C82.968 34.1858 82.9968 34.1029 83.0797 34.0265C92.4355 37.5763 94.816 44.3192 94.816 50.5968C94.816 54.9912 93.6497 59.1751 92.8977 61.8422L92.5821 62.9478C92.5821 62.9478 106.361 61.2844 107.291 61.173C105.889 62.9478 102.868 66.1089 96.8363 69.439C96.8363 69.4072 90.6191 68.6454 90.6191 68.6454L90.4568 68.62L90.4025 68.7793C89.9851 70.0636 86.346 81.5609 86.3267 90.0117C86.3267 93.1443 87.2125 95.5755 88.9621 97.2517C92.0786 100.25 97.2409 100.416 100.848 100.276C116.185 99.7148 128.153 100.658 136.459 103.115L136.95 103.249L137.026 103.134C137.542 102.341 137.947 100.869 137.947 98.9182C137.947 95.2153 136.465 89.6961 131.482 83.4537C131.536 83.4091 131.536 83.3772 131.6 83.3296C132.425 83.7851 145.879 91.4266 147.676 102.962C147.361 103.083 141.229 105.585 141.229 105.585L141.427 105.785C147.112 111.738 149.075 118.93 150.649 124.688C151.901 129.252 153.396 132.167 155.378 133.878C157.675 135.861 166.381 140.016 168.994 141.236C171.167 144.324 174.902 150.111 177.611 154.591V154.582C183.493 137.126 186.501 118.93 186.501 100.354C186.501 79.3573 182.671 58.8565 175.182 39.3596C152 28.8917 126.045 23.3276 99.9811 23.3276C73.9147 23.3276 47.9885 28.8914 24.8003 39.3596C17.3023 58.8585 13.4751 79.3578 13.4751 100.354C13.4751 121.299 17.296 141.754 24.7557 161.243C47.9478 171.727 73.9032 177.265 99.9824 177.265C126.074 177.265 152.029 171.727 175.217 161.243L175.249 161.215L175.245 161.214Z" fill="#367C2B"/>
</svg>
