<svg width="200" height="200" viewBox="0 0 200 200" fill="none" xmlns="http://www.w3.org/2000/svg">
<g clip-path="url(#clip0_701_540)">
<circle cx="100" cy="100" r="99.5" fill="url(#paint0_linear_701_540)" stroke="url(#paint1_linear_701_540)"/>
<path d="M40 40.9251C49.4372 47.3241 57.2919 55.79 62.9672 65.6794C66.3363 72.4282 68.8254 79.5815 70.3733 86.9641C86.683 87.2458 93.5337 94.652 103.001 111.622C105.062 115.373 107.219 119.125 109.28 122.683C106.277 118.086 102.904 113.022 99.9013 108.901C96.8597 103.788 92.6452 99.4723 87.606 96.3102C82.5668 93.1481 76.8475 91.2304 70.9207 90.7154C67.7007 90.6188 66.8956 90.6188 65.672 90.6188C64.4484 90.6188 62.8625 90.6188 57.9841 90.5222C72.5147 98.5724 73.6417 118.553 82.8269 131.578C86.6806 138.444 92.0399 144.348 98.5024 148.846C104.965 153.344 112.362 156.319 120.139 157.548C124.556 158.432 129.04 158.933 133.543 159.045C128.779 154.505 124.79 149.216 121.733 143.388C117.637 135.547 114.248 127.357 111.606 118.915C107.485 105.979 103.451 90.1358 101.479 81.6993C97.3575 64.5443 90.6034 48.8867 70.3572 42.7928C62.2493 41.1588 53.984 40.4378 45.7156 40.6433C42.246 40.8285 40 40.9251 40 40.9251Z" fill="#88D600"/>
<path d="M141.346 40.8286L118.749 127.545C121.938 137.787 127.347 147.198 134.592 155.109L159.435 60.0444L159.62 59.2957C159.889 58.1594 160.017 56.9938 159.998 55.8261C160.095 46.826 151.956 41.0138 141.346 40.8286Z" fill="black"/>
<path d="M56.9606 94.3625L40.3691 157.83H63.4329L72.8999 121.17C70.4415 110.817 64.8804 101.469 56.9606 94.3625Z" fill="black"/>
</g>
<defs>
<linearGradient id="paint0_linear_701_540" x1="100" y1="0" x2="100" y2="200" gradientUnits="userSpaceOnUse">
<stop stop-color="white"/>
<stop offset="1" stop-color="#E9E9E9"/>
</linearGradient>
<linearGradient id="paint1_linear_701_540" x1="100" y1="0" x2="100" y2="200" gradientUnits="userSpaceOnUse">
<stop stop-color="#DBDBDB"/>
<stop offset="1" stop-color="#FCFCFC" stop-opacity="0"/>
</linearGradient>
<clipPath id="clip0_701_540">
<rect width="200" height="200" fill="white"/>
</clipPath>
</defs>
</svg>
