<svg width="200" height="200" viewBox="0 0 200 200" fill="none" xmlns="http://www.w3.org/2000/svg">
<g clip-path="url(#clip0_701_538)">
<circle cx="100" cy="100" r="100" fill="#0F5784"/>
<circle cx="100" cy="100" r="100" fill="url(#paint0_linear_701_538)"/>
<mask id="mask0_701_538" style="mask-type:alpha" maskUnits="userSpaceOnUse" x="0" y="0" width="200" height="200">
<circle cx="100" cy="100" r="100" fill="#D9D9D9"/>
</mask>
<g mask="url(#mask0_701_538)">
<path d="M150.881 97.4633C148.16 91.481 145.982 85.2676 144.371 78.8975C143.079 74.5944 140.778 70.5498 137.24 67.758C135.148 66.107 133.018 65.168 131.04 64.0448C129.062 62.9216 126.581 61.0433 124.737 58.5246C122.889 56.0027 122.653 52.6825 121.491 47.9544C120.328 43.2263 119.593 36.5519 113.988 28.4603C108.383 20.3686 101.68 13.6911 97.8667 12.0604C96.2453 11.3673 94.7757 12.9144 94.6021 15.2599C94.4285 17.6054 94.5959 20.9411 94.9958 23.5001C96.391 32.6778 99.4758 39.5224 104.697 48.861C109.914 58.2058 113.864 60.8855 113.864 65.4465C113.864 73.928 101.531 73.4979 97.3676 72.7429C93.2039 71.9879 91.6166 70.4779 89.2697 68.9802C45.2861 40.9056 -17.1006 28.7264 -77.9186 45.0148C-78.4674 45.1633 -78.6131 45.4759 -78.2287 45.4789C-20.7621 38.6405 24.629 44.3557 66.864 73.0183C68.8172 74.3427 67.422 77.4308 64.6938 76.1126C21.9411 55.4333 -44.4822 45.7946 -97.1403 60.6411C-97.9154 60.8577 -98.4238 62.213 -96.6505 61.8912C-51.6128 53.6789 -5.03749 58.9082 34.1034 81.7752C37.399 83.6998 35.1048 88.4558 31.9146 87.0665C0.654612 73.4515 -31.6812 65.6291 -75.2896 72.8203C-76.5669 73.0307 -76.9886 73.8538 -75.178 73.7764C-39.8783 72.2323 -7.89593 82.0722 18.1897 94.9879C32.2557 101.95 58.4158 117.672 66.9849 127.339C74.162 135.434 76.7508 138.8 85.5958 144.32C98.2573 152.2 110.266 161.079 121.506 170.873C121.506 170.873 130.24 179.076 131.35 180.081C132.463 181.087 132.9 181.319 134.76 181.319C136.62 181.319 137.507 178.748 137.86 176.987C138.214 175.226 137.86 170.489 135.69 167.704C127.881 157.441 118.82 148.19 108.718 140.165C106.477 138.384 104.495 136.301 102.827 133.976C101.704 132.22 101.107 130.18 101.107 128.097C101.107 126.014 101.704 123.974 102.827 122.218C108.287 112.892 119.327 107.907 129.489 112.316C137.55 115.813 150.044 114.414 152.431 104.89C153.293 101.455 152.053 99.7469 150.881 97.4633ZM137.699 88.9076C132.491 89.053 130.547 86.7818 130.274 85.148C130.001 83.5142 130.723 81.9918 130.723 81.9918C133.182 80.9304 135.547 81.0202 136.924 82.7561C138.756 85.0706 137.699 88.9076 137.699 88.9076Z" fill="#4CA1D6"/>
</g>
</g>
<defs>
<linearGradient id="paint0_linear_701_538" x1="100" y1="0" x2="100" y2="200" gradientUnits="userSpaceOnUse">
<stop stop-opacity="0"/>
<stop offset="1" stop-opacity="0.6"/>
</linearGradient>
<clipPath id="clip0_701_538">
<rect width="200" height="200" fill="white"/>
</clipPath>
</defs>
</svg>
